<?xml version="1.0" encoding="UTF-8"?>
<svg width="80px" height="80px" viewBox="0 0 80 80" version="1.1" xmlns="http://www.w3.org/2000/svg" xmlns:xlink="http://www.w3.org/1999/xlink" style="background: #FFFFFF;">
    <!-- Generator: Sketch 61.1 (89650) - https://sketch.com -->
    <title>01 Base / Ic / IcInstagram</title>
    <desc>Created with Sketch.</desc>
    <g id="01-Base-/-Ic-/-IcInstagram" stroke="none" stroke-width="1" fill="none" fill-rule="evenodd">
        <rect fill="#FFFFFF" x="0" y="0" width="80" height="80"></rect>
        <path d="M55,0 C68.805,0 80,11.195 80,25 L80,25 L80,55 C80,68.805 68.805,80 55,80 L55,80 L25,80 C11.195,80 0,68.805 0,55 L0,55 L0,25 C0,11.195 11.195,0 25,0 L25,0 Z M55,7.5 L25,7.5 C15.35,7.5 7.5,15.35 7.5,25 L7.5,25 L7.5,55 C7.5,64.65 15.35,72.5 25,72.5 L25,72.5 L55,72.5 C64.65,72.5 72.5,64.65 72.5,55 L72.5,55 L72.5,25 C72.5,15.35 64.65,7.5 55,7.5 L55,7.5 Z M40,20 C51.045,20 60,28.955 60,40 C60,51.045 51.045,60 40,60 C28.955,60 20,51.045 20,40 C20,28.955 28.955,20 40,20 Z M40,27.5 C33.11,27.5 27.5,33.105 27.5,40 C27.5,46.89 33.11,52.5 40,52.5 C46.89,52.5 52.5,46.89 52.5,40 C52.5,33.105 46.89,27.5 40,27.5 Z M61.5,15.835 C62.9718389,15.835 64.165,17.0281611 64.165,18.5 C64.165,19.9718389 62.9718389,21.165 61.5,21.165 C60.0281611,21.165 58.835,19.9718389 58.835,18.5 C58.835,17.0281611 60.0281611,15.835 61.5,15.835 Z" id="IcInstagram" fill="#222222"></path>
    </g>
</svg>