<?xml version="1.0" encoding="UTF-8"?>
<svg width="80px" height="80px" viewBox="0 0 80 80" version="1.1" xmlns="http://www.w3.org/2000/svg" xmlns:xlink="http://www.w3.org/1999/xlink">
    <!-- Generator: Sketch 61.1 (89650) - https://sketch.com -->
    <title>01 Base / Ic / IcJacotStudio</title>
    <desc>Created with Sketch.</desc>
    <g id="01-Base-/-Ic-/-IcJacotStudio" stroke="none" stroke-width="1" fill="none" fill-rule="evenodd">
        <rect id="Circle" fill="#C5C5C5" x="19.9999583" y="20" width="40" height="40" rx="20"></rect>
        <path d="M72.251625,53.6220278 C70.489125,57.78925 67.9646806,61.5328611 64.7487083,64.7486944 C61.5327361,67.9646667 57.7892639,70.4889722 53.6220417,72.2516111 C49.3102361,74.0753611 44.7271806,74.9999444 39.9999583,74.9999444 C37.5813472,74.9999444 35.2007917,74.7563333 32.8746806,74.2756389 C43.735375,72.1210556 49.9999583,65.2523056 49.9999583,54.9999444 L49.9999583,42.4999444 C49.9999583,38.3645278 53.3645417,34.9999444 57.4999583,34.9999444 C58.8806528,34.9999444 59.9999583,33.8807778 59.9999583,32.4999444 C59.9999583,31.11925 58.8806528,29.9999444 57.4999583,29.9999444 C50.6074583,29.9999444 44.9999583,35.6074444 44.9999583,42.4999444 L44.9999583,54.9999444 C44.9999583,59.9991111 43.1448194,63.8195278 39.4859306,66.3550833 C36.0450972,68.7396667 31.0359306,69.9999444 25.0000972,69.9999444 L21.9571806,69.9999444 C19.5288472,68.5375833 17.2842639,66.78175 15.2513472,64.7486944 C15.1663472,64.6638333 15.0839861,64.5770278 14.9999583,64.4914722 L14.9999583,52.4999444 C14.9999583,46.4645278 10.7002361,41.4143889 5.00315278,40.2518889 C5.00259722,40.1678611 4.99995833,40.0841111 4.99995833,39.9999444 C4.99995833,35.2728611 5.92468056,30.6896667 7.74843056,26.378 C9.51106944,22.2107778 12.0352361,18.4671667 15.2513472,15.2511944 C18.4671806,12.0353611 22.2107917,9.51091667 26.3780139,7.74841667 C30.6896806,5.92466667 35.272875,4.99994444 39.9999583,4.99994444 C42.4185694,4.99994444 44.799125,5.24369444 47.1252361,5.72438889 C36.2648194,7.87883333 29.9999583,14.7475833 29.9999583,24.9999444 L29.9999583,37.4999444 C29.9999583,41.6355 26.6355139,44.9999444 22.4999583,44.9999444 C21.1192639,44.9999444 20.0000972,46.11925 20.0000972,47.4999444 C20.0000972,48.8807778 21.1194028,49.9999444 22.5000972,49.9999444 C29.3925972,49.9999444 34.9999583,44.3924444 34.9999583,37.4999444 L34.9999583,24.9999444 C34.9999583,20.0009167 36.8552361,16.1805 40.514125,13.6449444 C43.9549583,11.2603611 48.964125,9.99994444 54.9999583,9.99994444 L58.0427361,9.99994444 C60.4713472,11.4625833 62.7157917,13.2182778 64.7487083,15.2511944 C64.8337083,15.3361944 64.9160694,15.423 64.9999583,15.5085556 L64.9999583,27.4999444 C64.9999583,33.5355 69.2998194,38.5855 74.9970417,39.748 C74.9975972,39.8321667 74.9999583,39.9159167 74.9999583,39.9999444 C74.9999583,44.7271667 74.075375,49.3103611 72.251625,53.6220278 M77.4999583,34.9999444 C76.4545417,34.9999444 75.4587083,34.7843889 74.5537083,34.3963333 C71.8787083,33.2491111 69.9999583,30.5900833 69.9999583,27.4999444 L69.9999583,21.9571667 L69.9999583,13.5459167 C68.8896806,12.2877222 67.701625,11.1000833 66.4431528,9.99022222 C65.9717639,9.57466667 65.4906528,9.17008333 64.9999583,8.77675 C63.240375,7.36605556 61.3592639,6.10119444 59.3744028,4.99994444 C53.634125,1.81563889 47.0295417,-5.55555556e-05 39.9999583,-5.55555556e-05 C17.9085694,-5.55555556e-05 -4.16666667e-05,17.9085556 -4.16666667e-05,39.9999444 C-4.16666667e-05,41.6934167 0.106347222,43.3618889 0.310513889,44.9999444 L2.50009722,44.9999444 C3.545375,44.9999444 4.54120833,45.2156389 5.44620833,45.6038333 C8.12120833,46.7509167 9.99995833,49.4099444 9.99995833,52.4999444 L9.99995833,58.0428611 L9.99995833,66.4541111 C11.1102361,67.7123056 12.2982917,68.8999444 13.5567639,70.0098056 C14.0281528,70.4253611 14.5094028,70.8299444 14.9999583,71.2232778 C16.7595417,72.6339722 18.6406528,73.8989722 20.6255139,74.9999444 C26.3657917,78.1843889 32.9705139,79.9999444 39.9999583,79.9999444 C62.0914861,79.9999444 79.9999583,62.0913333 79.9999583,39.9999444 C79.9999583,38.3066111 79.8937083,36.6381389 79.6895417,34.9999444 L77.4999583,34.9999444 Z" id="Logo" fill="#222222"></path>
    </g>
</svg>