<?xml version="1.0" encoding="UTF-8"?>
<svg width="80px" height="80px" viewBox="0 0 80 80" version="1.1" xmlns="http://www.w3.org/2000/svg" xmlns:xlink="http://www.w3.org/1999/xlink" style="background: #FFFFFF;">
    <!-- Generator: Sketch 61.1 (89650) - https://sketch.com -->
    <title>01 Base / Ic / IcLinkeding</title>
    <desc>Created with Sketch.</desc>
    <g id="01-Base-/-Ic-/-IcLinkeding" stroke="none" stroke-width="1" fill="none" fill-rule="evenodd">
        <rect fill="#FFFFFF" x="0" y="0" width="80" height="80"></rect>
        <path d="M17.89,25 L17.89,80 L-7.10542736e-15,80 L-7.10542736e-15,25 L17.89,25 Z M42.89,25 L42.89,35.515 C45.07,32.585 51.685,25 62.115,25 C63.335,25 64.375,25.135 65.325,25.325 C65.57,25.365 65.81,25.41 66.05,25.465 C66.1166667,25.4833333 66.1811111,25.5027778 66.2444444,25.5227778 L66.62,25.645 C74.305,27.65 80,34.575 80,42.885 L80,42.885 L80,80 L62.115,80 L62.115,80 L62.115,45 C56.41,31.17 42.89,50 42.89,50 L42.89,50 L42.89,80 L25,80 L25,25 L42.89,25 Z M8.75,0 C13.5824916,0 17.5,3.91750844 17.5,8.75 C17.5,13.5824916 13.5824916,17.5 8.75,17.5 C3.91750844,17.5 0,13.5824916 0,8.75 C0,3.91750844 3.91750844,0 8.75,0 Z" id="IcLinkeding" fill="#222222"></path>
    </g>
</svg>