<?xml version="1.0" encoding="UTF-8"?>
<svg width="40px" height="40px" viewBox="0 0 40 40" version="1.1" xmlns="http://www.w3.org/2000/svg" xmlns:xlink="http://www.w3.org/1999/xlink">
    <!-- Generator: Sketch 48.1 (47250) - http://www.bohemiancoding.com/sketch -->
    <title>Fill 9</title>
    <desc>Created with Sketch.</desc>
    <defs></defs>
    <g id="Mobile-Copy" stroke="none" stroke-width="1" fill="none" fill-rule="evenodd" transform="translate(-228.000000, -816.000000)">
        <g id="Group-4" transform="translate(52.000000, 816.000000)" fill="#FFFFFF">
            <g id="Group-6-Copy">
                <path d="M213.791667,0 L178.206667,0 C176.99,0 176,0.986666667 176,2.20833333 L176,37.7916667 C176,39.0116667 176.99,40 178.206667,40 L197.365,40 L197.365,24.51 L192.153333,24.51 L192.153333,18.4716667 L197.365,18.4716667 L197.365,14.02 C197.365,8.85333333 200.518333,6.04 205.128333,6.04 C207.338333,6.04 209.233333,6.205 209.786667,6.27666667 L209.786667,11.6766667 L206.588333,11.6766667 C204.083333,11.6766667 203.6,12.8683333 203.6,14.6166667 L203.6,18.47 L209.578333,18.47 L208.796667,24.5066667 L203.598333,24.5066667 L203.598333,39.9983333 L213.79,39.9983333 C215.01,39.9983333 216,39.0083333 216,37.7916667 L216,2.20666667 C216,0.986666667 215.01,0 213.791667,0" id="Fill-9"></path>
            </g>
        </g>
    </g>
</svg>