<?xml version="1.0" encoding="utf-8"?>
<!-- Generator: Adobe Illustrator 22.0.1, SVG Export Plug-In . SVG Version: 6.00 Build 0)  -->
<svg version="1.1" id="Calque_1" xmlns="http://www.w3.org/2000/svg" xmlns:xlink="http://www.w3.org/1999/xlink" x="0px" y="0px"
	 viewBox="0 0 40 40" style="enable-background:new 0 0 40 40;" xml:space="preserve">
<style type="text/css">
	.st0{fill:#0000FF;}
</style>
<title>Fill 9</title>
<desc>Created with Sketch.</desc>
<g id="Mobile-Copy" transform="translate(-228.000000, -816.000000)">
	<g id="Group-4" transform="translate(52.000000, 816.000000)">
		<g id="Group-6-Copy">
			<path id="Fill-9" class="st0" d="M213.8,0h-35.6C177,0,176,1,176,2.2v35.6c0,1.2,1,2.2,2.2,2.2h19.2V24.5h-5.2v-6h5.2V14
				c0-5.2,3.2-8,7.8-8c2.2,0,4.1,0.2,4.7,0.2v5.4h-3.2c-2.5,0-3,1.2-3,2.9v3.9h6l-0.8,6h-5.2V40h10.2c1.2,0,2.2-1,2.2-2.2V2.2
				C216,1,215,0,213.8,0"/>
		</g>
	</g>
</g>
</svg>
