<?xml version="1.0" encoding="utf-8"?>
<!-- Generator: Adobe Illustrator 22.0.1, SVG Export Plug-In . SVG Version: 6.00 Build 0)  -->
<svg version="1.1" id="Calque_1" xmlns="http://www.w3.org/2000/svg" xmlns:xlink="http://www.w3.org/1999/xlink" x="0px" y="0px"
	 viewBox="0 0 40 40" style="enable-background:new 0 0 40 40;" xml:space="preserve">
<style type="text/css">
	.st0{fill:#0000FF;}
</style>
<title>Group 2</title>
<desc>Created with Sketch.</desc>
<g id="Mobile-Copy" transform="translate(-52.000000, -816.000000)">
	<g id="Group-4" transform="translate(52.000000, 816.000000)">
		<g id="Group-6-Copy">
			<g id="Group-2">
				<path id="Fill-1" class="st0" d="M36.5,29c0,4.1-3.4,7.5-7.5,7.5H11c-4.1,0-7.5-3.4-7.5-7.5V11c0-4.1,3.4-7.5,7.5-7.5H29
					c4.1,0,7.5,3.4,7.5,7.5L36.5,29L36.5,29z M29,0H11C5,0,0,5,0,11V29C0,35,5,40,11,40H29c6.1,0,11-5,11-11V11C40,5,35,0,29,0z"/>
				<path id="Fill-3" class="st0" d="M20.3,27.1c-3.7,0-6.8-3-6.8-6.8c0-3.7,3-6.8,6.8-6.8s6.8,3,6.8,6.8C27.1,24,24,27.1,20.3,27.1
					 M20.3,10C14.6,10,10,14.6,10,20.3c0,5.7,4.6,10.3,10.3,10.3S30.6,26,30.6,20.3C30.6,14.6,26,10,20.3,10"/>
				<path id="Fill-5" class="st0" d="M30.9,6.7c-0.7,0-1.4,0.3-1.8,0.8c-0.5,0.5-0.8,1.2-0.8,1.8c0,0.7,0.3,1.4,0.8,1.8
					c0.5,0.5,1.2,0.8,1.8,0.8c0.7,0,1.4-0.3,1.8-0.8c0.5-0.5,0.8-1.2,0.8-1.8c0-0.7-0.3-1.4-0.8-1.8C32.3,6.9,31.6,6.7,30.9,6.7"/>
			</g>
		</g>
	</g>
</g>
</svg>
