<?xml version="1.0" encoding="UTF-8"?>
<svg width="40px" height="40px" viewBox="0 0 40 40" version="1.1" xmlns="http://www.w3.org/2000/svg" xmlns:xlink="http://www.w3.org/1999/xlink">
    <!-- Generator: Sketch 48.1 (47250) - http://www.bohemiancoding.com/sketch -->
    <title>Group 2</title>
    <desc>Created with Sketch.</desc>
    <defs></defs>
    <g id="Mobile-Copy" stroke="none" stroke-width="1" fill="none" fill-rule="evenodd" transform="translate(-52.000000, -816.000000)">
        <g id="Group-4" transform="translate(52.000000, 816.000000)" fill="#FFFFFF">
            <g id="Group-6-Copy">
                <g id="Group-2">
                    <path d="M36.4516667,28.9616667 C36.4516667,33.0916667 33.09,36.45 28.9616667,36.45 L11.0383333,36.45 C6.90833333,36.4516667 3.54833333,33.0916667 3.54833333,28.9616667 L3.54833333,11.0383333 C3.54833333,6.91 6.90833333,3.54833333 11.0383333,3.54833333 L28.9616667,3.54833333 C33.09,3.54833333 36.45,6.91 36.45,11.0383333 L36.45,28.9616667 L36.4516667,28.9616667 Z M28.9616667,0 L11.0383333,0 C4.95166667,0 0,4.95166667 0,11.0383333 L0,28.9616667 C0,35.0483333 4.95166667,40 11.0383333,40 L28.9616667,40 C35.0483333,40 40,35.0466667 40,28.9616667 L40,11.0383333 C40,4.95166667 35.0483333,0 28.9616667,0 Z" id="Fill-1"></path>
                    <path d="M20.3066667,27.065 C16.58,27.065 13.5483333,24.035 13.5483333,20.3066667 C13.5483333,16.58 16.58,13.55 20.3066667,13.55 C24.0333333,13.55 27.065,16.58 27.065,20.3066667 C27.065,24.035 24.0316667,27.065 20.3066667,27.065 M20.3066667,10 C14.6233333,10 10,14.625 10,20.3083333 C10,25.99 14.6233333,30.615 20.3066667,30.615 C25.99,30.615 30.615,25.99 30.615,20.3083333 C30.615,14.625 25.99,10 20.3066667,10" id="Fill-3"></path>
                    <path d="M30.9366667,6.66666667 C30.2533333,6.66666667 29.5816667,6.94333333 29.0983333,7.42833333 C28.6133333,7.91166667 28.3333333,8.58166667 28.3333333,9.27 C28.3333333,9.95333333 28.6133333,10.625 29.0983333,11.11 C29.5816667,11.5933333 30.2533333,11.8716667 30.9366667,11.8716667 C31.6233333,11.8716667 32.2916667,11.5933333 32.7766667,11.11 C33.2633333,10.625 33.54,9.95333333 33.54,9.27 C33.54,8.58166667 33.2633333,7.91166667 32.7766667,7.42833333 C32.295,6.94333333 31.6233333,6.66666667 30.9366667,6.66666667" id="Fill-5"></path>
                </g>
            </g>
        </g>
    </g>
</svg>