<?xml version="1.0" encoding="UTF-8"?>
<svg width="40px" height="40px" viewBox="0 0 40 40" version="1.1" xmlns="http://www.w3.org/2000/svg" xmlns:xlink="http://www.w3.org/1999/xlink">
    <!-- Generator: Sketch 48.1 (47250) - http://www.bohemiancoding.com/sketch -->
    <title>Fill 7</title>
    <desc>Created with Sketch.</desc>
    <defs></defs>
    <g id="Mobile-Copy" stroke="none" stroke-width="1" fill="none" fill-rule="evenodd" transform="translate(-140.000000, -816.000000)">
        <g id="Group-4" transform="translate(52.000000, 816.000000)" fill="#FFFFFF">
            <g id="Group-6-Copy">
                <path d="M88.5083333,40 L97.0816667,40 L97.0816667,13.01 L88.5083333,13.01 L88.5083333,40 Z M92.8533333,0 C89.9183333,0 88,2.01333333 88,4.66166667 C88,7.25333333 89.8633333,9.32833333 92.7383333,9.32833333 L92.7966667,9.32833333 C95.785,9.32833333 97.6466667,7.25333333 97.6466667,4.66166667 C97.59,2.01333333 95.785,0 92.8533333,0 Z M128,24.525 L128,40 L119.425,40 L119.425,25.56 C119.425,21.9333333 118.186667,19.4583333 115.083333,19.4583333 C112.713333,19.4583333 111.303333,21.1266667 110.683333,22.74 C110.456667,23.3166667 110.4,24.12 110.4,24.9266667 L110.4,40 L101.823333,40 C101.823333,40 101.938333,15.545 101.823333,13.01 L110.398333,13.01 L110.398333,16.8366667 C110.38,16.865 110.358333,16.895 110.341667,16.9233333 L110.398333,16.9233333 L110.398333,16.8366667 C111.538333,15 113.571667,12.3766667 118.126667,12.3766667 C123.77,12.3766667 128,16.2333333 128,24.525 Z" id="Fill-7"></path>
            </g>
        </g>
    </g>
</svg>