<?xml version="1.0" encoding="utf-8"?>
<!-- Generator: Adobe Illustrator 22.0.1, SVG Export Plug-In . SVG Version: 6.00 Build 0)  -->
<svg version="1.1" id="Calque_1" xmlns="http://www.w3.org/2000/svg" xmlns:xlink="http://www.w3.org/1999/xlink" x="0px" y="0px"
	 viewBox="0 0 40 40" style="enable-background:new 0 0 40 40;" xml:space="preserve">
<style type="text/css">
	.st0{fill:#0000FF;}
</style>
<title>Fill 7</title>
<desc>Created with Sketch.</desc>
<g id="Mobile-Copy" transform="translate(-140.000000, -816.000000)">
	<g id="Group-4" transform="translate(52.000000, 816.000000)">
		<g id="Group-6-Copy">
			<path id="Fill-7" class="st0" d="M88.5,40h8.6V13h-8.6V40z M92.9,0C89.9,0,88,2,88,4.7c0,2.6,1.9,4.7,4.7,4.7h0.1
				c3,0,4.8-2.1,4.8-4.7C97.6,2,95.8,0,92.9,0z M128,24.5V40h-8.6V25.6c0-3.6-1.2-6.1-4.3-6.1c-2.4,0-3.8,1.7-4.4,3.3
				c-0.2,0.6-0.3,1.4-0.3,2.2V40h-8.6c0,0,0.1-24.5,0-27h8.6v3.8c0,0,0,0.1-0.1,0.1h0.1v-0.1c1.1-1.8,3.2-4.5,7.7-4.5
				C123.8,12.4,128,16.2,128,24.5z"/>
		</g>
	</g>
</g>
</svg>
