<?xml version="1.0" encoding="UTF-8"?>
<svg width="50px" height="49px" viewBox="0 0 50 49" version="1.1" xmlns="http://www.w3.org/2000/svg" xmlns:xlink="http://www.w3.org/1999/xlink">
    <!-- Generator: Sketch 48.1 (47250) - http://www.bohemiancoding.com/sketch -->
    <title>Logo</title>
    <desc>Created with Sketch.</desc>
    <defs>
        <polygon id="path-1" points="0.000101116021 0.238279095 48.9731884 0.238279095 48.9731884 48.2914418 0.000101116021 48.2914418"></polygon>
    </defs>
    <g id="JS_Home_1440" stroke="none" stroke-width="1" fill="none" fill-rule="evenodd" transform="translate(-100.000000, -40.000000)">
        <g id="Logo" transform="translate(100.000000, 40.000000)">
            <g id="Group-3" transform="translate(0.479365, 0.026475)">
                <mask id="mask-2" fill="white">
                    <use xlink:href="#path-1"></use>
                </mask>
                <g id="Clip-2"></g>
                <path d="M24.4954573,45.7495334 C22.8267901,45.7495334 21.1836548,45.5642052 19.5913302,45.1935488 C26.2649876,44.7434661 29.3743053,41.4340342 29.3743053,34.8945968 L29.3743053,25.2575312 L29.3743053,22.5570347 L29.3743053,16.7853855 L29.3743053,15.6998919 C29.3743053,14.6143982 29.8798854,14.13784 30.9668826,14.13784 L33.0397611,14.13784 C33.9495525,14.13784 34.2781795,13.8201346 34.2781795,12.97292 L34.2781795,12.4963618 C34.2781795,11.6491473 33.9495525,11.3314418 33.0397611,11.3314418 L30.4613025,11.3314418 C27.8825912,11.3314418 26.3658509,12.97292 26.3658509,15.6734164 L26.3658509,16.7589101 L26.3658509,22.5305593 L26.3658509,25.2310557 L26.3658509,34.8681213 C26.3658509,40.083786 23.6862763,42.5989542 17.8721051,42.5989542 C11.8304228,42.5989542 9.04973223,40.0573105 9.04973223,34.8681213 L9.04973223,30.5261467 C9.04973223,27.9580276 7.63410793,26.5018776 5.20757621,26.4754021 L2.67967568,26.4754021 C2.60358587,25.7340894 2.55328065,24.9927766 2.55328065,24.2514639 C2.55328065,12.39046 12.3868137,2.72691892 24.5207363,2.72691892 C26.1888978,2.72691892 27.8320332,2.93872256 29.3993315,3.28290347 C22.7259269,3.73298621 19.6416355,7.04241809 19.6416355,13.5818555 L19.6416355,22.5305593 L19.6416355,25.2310557 L19.6416355,31.7175422 L19.6416355,31.9028704 L19.6416355,32.8030359 C19.6416355,33.8885295 19.1360554,34.3650877 18.0493109,34.3650877 L15.9761797,34.3650877 C15.0663883,34.3650877 14.7375084,34.6827932 14.7375084,35.5300077 L14.7375084,36.0065659 C14.7375084,36.8537805 15.0663883,37.1714859 15.9761797,37.1714859 L18.554891,37.1714859 C21.1333496,37.1714859 22.6500899,35.5300077 22.6500899,32.8295113 L22.6500899,31.9293458 L22.6500899,25.2575312 L22.6500899,22.5570347 L22.6500899,13.6083309 C22.6500899,8.3926663 25.3296644,5.87749807 31.1438357,5.87749807 C37.1852651,5.87749807 39.9659557,8.41914175 39.9659557,13.6083309 L39.9659557,17.9503056 C39.9659557,20.5184247 41.3818328,21.9745747 43.8083645,22.0010502 L46.3362651,22.0010502 C46.4121021,22.7423629 46.4626601,23.4836757 46.4626601,24.2249884 C46.4626601,36.1124677 36.603848,45.7495334 24.4954573,45.7495334 M48.4344225,19.1681765 L48.3841173,19.1681765 L44.2633866,19.1681765 C43.2522264,19.1681765 42.9235994,18.850471 42.9235994,17.9238301 L42.9235994,13.5818555 C42.9235994,9.4516845 41.6596491,6.64528627 39.0561643,5.00380805 C34.9862445,2.01208163 29.9557224,0.238226145 24.4954573,0.238226145 C10.9964684,0.238226145 0.000101116021,11.0137363 0.000101116021,24.2514639 C0.000101116021,25.9723685 0.227612164,27.7197485 0.581265448,29.3347512 L4.70199611,29.3347512 C5.71315632,29.3347512 6.01625159,29.6524567 6.01625159,30.5790976 L6.01625159,34.9210723 C6.01625159,39.0512432 7.25517564,41.8576415 9.8841922,43.4991197 C13.9541121,46.4908461 18.9846341,48.2914418 24.4699255,48.2914418 C37.9691671,48.2914418 48.9655344,37.5156669 48.9655344,24.2779393 C49.0160924,22.4511329 48.8136076,20.8361302 48.4344225,19.1681765" id="Fill-1" fill="#FFFFFF" mask="url(#mask-2)"></path>
            </g>
        </g>
    </g>
</svg>