<?xml version="1.0" encoding="utf-8"?>
<!-- Generator: Adobe Illustrator 22.0.1, SVG Export Plug-In . SVG Version: 6.00 Build 0)  -->
<svg version="1.1" id="Calque_1" xmlns="http://www.w3.org/2000/svg" xmlns:xlink="http://www.w3.org/1999/xlink" x="0px" y="0px"
	 viewBox="0 0 50 49" style="enable-background:new 0 0 50 49;" xml:space="preserve">
<style type="text/css">
	.st0{fill:#10133B;}
</style>
<title>Logo</title>
<desc>Created with Sketch.</desc>
<g id="JS_Home_1440" transform="translate(-100.000000, -40.000000)">
	<g id="Logo" transform="translate(100.000000, 40.000000)">
		<g id="Group-3" transform="translate(0.479365, 0.026475)">
			<g id="Clip-2">
			</g>
			<path id="Fill-1" class="st0" d="M24.5,45.7c-1.7,0-3.3-0.2-4.9-0.6c6.7-0.5,9.8-3.8,9.8-10.3v-9.6v-2.7v-5.8v-1.1
				c0-1.1,0.5-1.6,1.6-1.6h2c0.9,0,1.2-0.3,1.2-1.2v-0.5c0-0.8-0.3-1.2-1.2-1.2h-2.6c-2.6,0-4.1,1.6-4.1,4.3v1.1v5.8V25v9.6
				c0,5.2-2.7,7.7-8.5,7.7c-6,0-8.8-2.5-8.8-7.7v-4.3c0-2.6-1.4-4-3.8-4.1H2.7c-0.1-0.7-0.1-1.5-0.1-2.2c0-11.9,9.8-21.5,22-21.5
				c1.7,0,3.3,0.2,4.9,0.6c-6.7,0.5-9.8,3.8-9.8,10.3v8.9V25v6.5v0.2v0.9c0,1.1-0.5,1.6-1.6,1.6H16c-0.9,0-1.2,0.3-1.2,1.2V36
				c0,0.8,0.3,1.2,1.2,1.2h2.6c2.6,0,4.1-1.6,4.1-4.3V32v-6.7v-2.7v-8.9c0-5.2,2.7-7.7,8.5-7.7c6,0,8.8,2.5,8.8,7.7V18
				c0,2.6,1.4,4,3.8,4.1h2.5c0.1,0.7,0.1,1.5,0.1,2.2C46.5,36.1,36.6,45.7,24.5,45.7 M48.4,19.2L48.4,19.2h-4.2
				c-1,0-1.3-0.3-1.3-1.2v-4.3c0-4.1-1.3-6.9-3.9-8.6C35,2,30,0.2,24.5,0.2C11,0.2,0,11,0,24.3c0,1.7,0.2,3.5,0.6,5.1h4.1
				c1,0,1.3,0.3,1.3,1.2v4.3c0,4.1,1.2,6.9,3.9,8.6c4.1,3,9.1,4.8,14.6,4.8C38,48.3,49,37.5,49,24.3C49,22.5,48.8,20.8,48.4,19.2"/>
		</g>
	</g>
</g>
</svg>
